<svg xmlns="http://www.w3.org/2000/svg" viewBox="0 0 1440 320"><path fill="#0099ff" fill-opacity="1" d="M0,288L26.7,245.3C53.3,203,107,117,160,96C213.3,75,267,117,320,149.3C373.3,181,427,203,480,186.7C533.3,171,587,117,640,128C693.3,139,747,213,800,245.3C853.3,277,907,267,960,229.3C1013.3,192,1067,128,1120,112C1173.3,96,1227,128,1280,122.7C1333.3,117,1387,75,1413,53.3L1440,32L1440,0L1413.3,0C1386.7,0,1333,0,1280,0C1226.7,0,1173,0,1120,0C1066.7,0,1013,0,960,0C906.7,0,853,0,800,0C746.7,0,693,0,640,0C586.7,0,533,0,480,0C426.7,0,373,0,320,0C266.7,0,213,0,160,0C106.7,0,53,0,27,0L0,0Z"></path></svg>
